<svg width="1200" height="900" viewBox="0 0 1200 900" fill="none" xmlns="http://www.w3.org/2000/svg">
  <defs>
    <linearGradient id="bg1" x1="140" y1="70" x2="1070" y2="880" gradientUnits="userSpaceOnUse">
      <stop stop-color="#071E1A"/>
      <stop offset="0.56" stop-color="#13564A"/>
      <stop offset="1" stop-color="#1F9D88"/>
    </linearGradient>
    <radialGradient id="glow1" cx="0" cy="0" r="1" gradientUnits="userSpaceOnUse" gradientTransform="translate(230 200) rotate(30) scale(240 220)">
      <stop stop-color="#F6C453" stop-opacity="0.9"/>
      <stop offset="1" stop-color="#F6C453" stop-opacity="0"/>
    </radialGradient>
    <radialGradient id="glow2" cx="0" cy="0" r="1" gradientUnits="userSpaceOnUse" gradientTransform="translate(940 180) rotate(20) scale(220 180)">
      <stop stop-color="#76F2D8" stop-opacity="0.55"/>
      <stop offset="1" stop-color="#76F2D8" stop-opacity="0"/>
    </radialGradient>
    <linearGradient id="card1" x1="0" y1="0" x2="1" y2="1">
      <stop stop-color="#EFF9F6" stop-opacity="0.9"/>
      <stop offset="1" stop-color="#E1F6F0" stop-opacity="0.48"/>
    </linearGradient>
  </defs>
  <rect width="1200" height="900" rx="56" fill="url(#bg1)"/>
  <rect x="58" y="56" width="1084" height="788" rx="36" stroke="rgba(255,255,255,0.16)" stroke-width="2"/>
  <ellipse cx="246" cy="206" rx="238" ry="220" fill="url(#glow1)"/>
  <ellipse cx="962" cy="198" rx="214" ry="170" fill="url(#glow2)"/>
  <g opacity="0.18">
    <path d="M118 706H1086" stroke="white" stroke-width="2"/>
    <path d="M170 116V784" stroke="white" stroke-width="1.2"/>
    <path d="M322 116V784" stroke="white" stroke-width="1.2"/>
    <path d="M474 116V784" stroke="white" stroke-width="1.2"/>
    <path d="M626 116V784" stroke="white" stroke-width="1.2"/>
    <path d="M778 116V784" stroke="white" stroke-width="1.2"/>
    <path d="M930 116V784" stroke="white" stroke-width="1.2"/>
  </g>
  <path d="M106 672C214 636 302 598 396 540C490 482 578 448 662 430C748 412 834 420 942 458C1018 484 1076 520 1126 552V714H106V672Z" fill="#0A2C25" fill-opacity="0.72"/>
  <path d="M102 708C222 652 358 568 504 518C650 468 786 480 1110 610V784H102V708Z" fill="#051712" fill-opacity="0.82"/>
  <rect x="278" y="396" width="102" height="212" rx="18" fill="#C8F5EA" fill-opacity="0.94"/>
  <rect x="292" y="412" width="74" height="130" rx="10" fill="#1E8E7A"/>
  <circle cx="328" cy="568" r="16" fill="#0E493F"/>
  <rect x="836" y="390" width="174" height="220" rx="26" fill="url(#card1)" stroke="rgba(255,255,255,0.22)" stroke-width="2"/>
  <rect x="862" y="420" width="122" height="90" rx="18" fill="#0D4D42" fill-opacity="0.94"/>
  <path d="M888 533H957" stroke="#1F9D88" stroke-width="14" stroke-linecap="round"/>
  <path d="M888 566H970" stroke="#78EED7" stroke-width="10" stroke-linecap="round" opacity="0.7"/>
  <path d="M236 532C324 514 394 480 470 420C548 358 618 318 712 278C804 238 884 226 978 250" stroke="#FFD564" stroke-width="12" stroke-linecap="round" stroke-dasharray="2 24"/>
  <path d="M238 530C328 514 398 482 472 422C548 360 618 320 708 282C800 242 882 230 974 254" stroke="#F9E596" stroke-width="3" stroke-linecap="round"/>
  <circle cx="238" cy="530" r="18" fill="#FFD564"/>
  <circle cx="978" cy="250" r="20" fill="#7FF6DA"/>
  <g opacity="0.96">
    <rect x="534" y="178" width="132" height="86" rx="22" fill="rgba(255,255,255,0.14)" stroke="rgba(255,255,255,0.18)" stroke-width="2"/>
    <path d="M582 244C600 224 618 202 636 182" stroke="#F6C453" stroke-width="8" stroke-linecap="round"/>
    <path d="M574 205L606 220L642 210" stroke="#8EF1DC" stroke-width="8" stroke-linecap="round" stroke-linejoin="round"/>
  </g>
  <g opacity="0.9">
    <circle cx="180" cy="170" r="10" fill="#F6C453"/>
    <circle cx="228" cy="142" r="6" fill="#7CF3D9"/>
    <circle cx="918" cy="130" r="8" fill="#F6C453"/>
    <circle cx="1044" cy="246" r="6" fill="#7CF3D9"/>
  </g>
</svg>
